<svg xmlns="http://www.w3.org/2000/svg" width="160" height="41" viewBox="0 0 160 41">
  <path id="Path_546" data-name="Path 546" d="M156.035,30.34a1.077,1.077,0,0,0-1.5.176c-.441.7-1.322,2.021-1.586,2.373a29.1,29.1,0,0,1-3.084,3.6,7.825,7.825,0,0,1-4.581,2.461,5.193,5.193,0,0,1-3.877-1.758,22.466,22.466,0,0,1-3.436-4.746,4.169,4.169,0,0,0-1.85-1.846,2.918,2.918,0,0,0-2.555.176,6.19,6.19,0,0,0-1.938,1.758,22.262,22.262,0,0,0-1.586,2.373c-.44-1.406-1.145-2.9-2.643-3.428-1.938-.7-3.7.7-5.286,1.582-1.322.791-2.907,1.67-5.2.439a12.31,12.31,0,0,0,3.612-5.1c.529-1.758.617-3.955-.969-5.185s-3.7-.7-5.2.439a6.6,6.6,0,0,0-2.467,4.57,7.725,7.725,0,0,0,1.674,5.273,12.7,12.7,0,0,1-3.436,1.758,10.47,10.47,0,0,1-5.463,0,8.356,8.356,0,0,1-3.789-2.461,8.679,8.679,0,0,0,4.141-3.34,4.819,4.819,0,0,0,.264-5.185,3.486,3.486,0,0,0-4.405-1.143c-1.762.7-2.908,2.285-3.965,3.779a55.018,55.018,0,0,0-3,4.834c-.088-.967-.441-4.131-.529-4.394a52.028,52.028,0,0,0,3.172-6.24,53.722,53.722,0,0,0,3.612-11.865,16.165,16.165,0,0,0,0-5.449A4.177,4.177,0,0,0,96.74.194a4.255,4.255,0,0,0-4.229,2.2A13.913,13.913,0,0,0,90.925,7.4a60.408,60.408,0,0,0-.352,12.129c.088,2.021.352,5.1.529,7.295a9.63,9.63,0,0,1-1.057,1.406,5.529,5.529,0,0,1-1.85,1.67,1.985,1.985,0,0,1-2.379,0c-.881-.615-1.762-2.637-2.115-4.394a1.088,1.088,0,0,0-1.145-1.055A1.061,1.061,0,0,0,81.5,25.594a12.075,12.075,0,0,1-1.145,3.691c-.881,1.406-2.115,2.637-3.7,2.549-1.85-.088-3.26-1.758-4.141-3.691a49.658,49.658,0,0,0,2.643-4.834,46.3,46.3,0,0,0,3.612-11.25c.441-3.691-.088-5.976-1.057-7.646a4.056,4.056,0,0,0-3-2.021,4.52,4.52,0,0,0-3.348,1.23A9.919,9.919,0,0,0,68.811,7.84c-1.145,3.34-1.145,7.207-.881,10.81a33.233,33.233,0,0,0,.969,5.8,23.289,23.289,0,0,0,1.145,3.6,25.274,25.274,0,0,1-2.731,3.34c-.793.791-2.908,2.637-5.2,2.549A6.07,6.07,0,0,1,60,33.5a8.5,8.5,0,0,1-3.877-3.34c.088-.176.793-1.143,1.233-1.846s.793-1.406,1.145-2.109a23.918,23.918,0,0,0,1.674-5.01,26.208,26.208,0,0,0,.617-5.889,11.376,11.376,0,0,0-1.057-4.834,4.68,4.68,0,0,0-1.762-1.934A3.1,3.1,0,0,0,55.33,8.28c-1.674.527-2.643,2.109-3.26,3.691a16.972,16.972,0,0,0-1.057,5.1,25.909,25.909,0,0,0,1.674,10.986c.176.352.617,1.406.881,1.934A9.717,9.717,0,0,1,51.013,32.1a4.6,4.6,0,0,1-4.846.176c-1.5-.967-2.467-3.252-2.643-5.449a1.086,1.086,0,0,0-1.057-1.143,1.164,1.164,0,0,0-1.145,1.23A7.7,7.7,0,0,1,40,31.482a5.227,5.227,0,0,1-4.229,2.2,4.782,4.782,0,0,1-3.965-2.373,16.531,16.531,0,0,1-2.2-4.922c-.617-1.934-.969-3.955-1.41-5.889a33.7,33.7,0,0,0-.969-3.691,4.725,4.725,0,0,0-1.586-2.373,3.113,3.113,0,0,0-2.379-.7,3.25,3.25,0,0,0-1.938.879,6.386,6.386,0,0,0-1.762,3.516,22.389,22.389,0,0,0-.352,5.273c.088,1.67.176,3.34.352,5.01a85.535,85.535,0,0,1-2.643-8.525c-.529-1.934-.969-3.779-1.674-5.625a8.884,8.884,0,0,0-2.731-4.394,3.01,3.01,0,0,0-2.555-.527,3.836,3.836,0,0,0-1.938,1.406,12.208,12.208,0,0,0-1.674,4.482A35.689,35.689,0,0,0,5.9,20.584,60.014,60.014,0,0,0,6.96,32.009,111.214,111.214,0,0,1,3,16.19c-.264-1.846-.7-5.361-.881-7.558A1.134,1.134,0,0,0,.969,7.4,1.094,1.094,0,0,0,0,8.631c.088,2.285.7,7.031,1.145,9.668C1.938,22.693,3.7,29.988,5.991,34.734a32.1,32.1,0,0,0,2.731,5.01c.441.615,1.233,1.758,2.379,1.143a1.59,1.59,0,0,0,.617-1.934c-.176-.7-1.057-2.637-1.322-3.516A35.984,35.984,0,0,1,8.458,26.3c-.176-1.934-.264-3.779-.264-5.713,0-4.658.793-7.822,1.674-8.877a1.405,1.405,0,0,1,.793-.615c.617-.088,1.057.264,1.762,1.494a28.942,28.942,0,0,1,2.026,5.889l1.586,5.8a40.589,40.589,0,0,0,4.67,10.81c.264.352.7,1.23,1.674.879A1.026,1.026,0,0,0,23,35a9.1,9.1,0,0,0-.264-1.055,42.725,42.725,0,0,1-1.057-7.031c-.176-2.109-.264-4.043-.264-5.361a18,18,0,0,1,.529-4.307c.176-.527.617-1.582,1.41-1.67.7-.088,1.057.264,1.41.967a19.474,19.474,0,0,1,1.322,4.57c.441,1.934.793,3.867,1.41,5.8A19.075,19.075,0,0,0,29.6,31.658a8.581,8.581,0,0,0,3.965,3.516A6.847,6.847,0,0,0,38.678,35a7.549,7.549,0,0,0,3.789-3.779,6.941,6.941,0,0,0,1.85,2.373A6.254,6.254,0,0,0,49.6,34.734a10.054,10.054,0,0,0,5.022-3.076,9.8,9.8,0,0,0,7.4,4.219c3.877.088,6.96-2.988,9.163-5.889a8.073,8.073,0,0,0,3.436,3.428,5.518,5.518,0,0,0,4.846-.176A8.15,8.15,0,0,0,82.907,29.2a4.937,4.937,0,0,0,4.053,3.076c1.85.088,3.524-1.23,4.67-2.549.176,1.23.264,2.549.441,3.779.088.352.088.791.176,1.143a4.625,4.625,0,0,0,.264,1.055,1.115,1.115,0,0,0,1.85-.176c.441-.967.969-1.846,1.41-2.725a40.134,40.134,0,0,1,2.555-4.131c.7-1.055,2.115-2.988,3.348-3.6a1.358,1.358,0,0,1,1.762.176,2.144,2.144,0,0,1,.176,2.285,6.364,6.364,0,0,1-3.877,3.34,4.976,4.976,0,0,1-1.057.352,1.192,1.192,0,0,0-.617.967,2.341,2.341,0,0,0,.617,1.23,10.19,10.19,0,0,0,3.436,2.988,11.91,11.91,0,0,0,10.4.264c.881-.439,2.2-1.318,2.643-1.582a6.732,6.732,0,0,0,5.2,1.143,8.482,8.482,0,0,0,2.467-.967,19.262,19.262,0,0,1,2.555-1.494,3.128,3.128,0,0,1,.969-.264.926.926,0,0,1,.793.439,5.791,5.791,0,0,1,.969,2.285,17.555,17.555,0,0,1,.352,2.109,1,1,0,0,0,.969.967,1.092,1.092,0,0,0,1.145-.791,10.921,10.921,0,0,1,.881-1.758,24.2,24.2,0,0,1,1.5-2.549c.441-.615,1.322-1.758,2.115-1.67.529.088.969.879,1.233,1.406a19.852,19.852,0,0,0,1.41,2.285,12.7,12.7,0,0,0,4.053,4.043,6.853,6.853,0,0,0,3.436.879,9.216,9.216,0,0,0,5.2-2.373,22.917,22.917,0,0,0,3.172-3.34c.793-.967,2.115-2.9,2.555-3.6C156.564,31.57,156.652,30.867,156.035,30.34ZM53.128,19.969c-.176-2.285.088-5.8,1.057-7.646.529-1.143,1.41-2.2,2.2-2.109.969.088,1.586,1.23,1.938,2.549A16.554,16.554,0,0,1,58.5,18.3a22,22,0,0,1-3.436,9.668A19.428,19.428,0,0,1,53.128,19.969Zm17-6.592a22.163,22.163,0,0,1,.793-4.834,8.011,8.011,0,0,1,2.2-3.6,2.483,2.483,0,0,1,1.322-.527,1.257,1.257,0,0,1,1.057.527c1.057,1.055,1.234,2.637,1.322,4.482a20.262,20.262,0,0,1-.793,5.361A51.823,51.823,0,0,1,71.63,25.506,37,37,0,0,1,70.132,13.377ZM93.216,23.4a81.749,81.749,0,0,1-.264-12.3,21.21,21.21,0,0,1,1.586-7.646,2.037,2.037,0,0,1,2.291-1.23c1.233.264,1.41,1.582,1.586,2.373a25.1,25.1,0,0,1-.881,7.558A58.136,58.136,0,0,1,93.216,23.4Zm22.115,8.789a5.129,5.129,0,0,1-1.145-3.516,4.593,4.593,0,0,1,1.586-3.164c.176-.176.441-.264.617-.439.617-.352,1.674-.527,2.115.176a2.706,2.706,0,0,1,.088,2.461A11.161,11.161,0,0,1,115.33,32.185ZM42.115,23.221a1.582,1.582,0,1,0-1.586-1.582A1.636,1.636,0,0,0,42.115,23.221ZM82.379,21.9a1.582,1.582,0,1,0-1.586-1.582A1.7,1.7,0,0,0,82.379,21.9Zm75.595,13.886a1.973,1.973,0,0,0-1.938,2.021,1.983,1.983,0,1,0,3.965,0A2.107,2.107,0,0,0,157.974,35.789Zm0,3.6a1.67,1.67,0,1,1,0-3.34,1.67,1.67,0,1,1,0,3.34Zm.793-2.109h0a.67.67,0,0,0-.176-.439,1.029,1.029,0,0,0-.617-.176h-.881v2.021h.352v-.7h.44l.529.7h.44l-.529-.791A.586.586,0,0,0,158.766,37.283Zm-1.233.352v-.7h.529c.264,0,.441.088.441.352h0a.4.4,0,0,1-.441.352h-.529Z" transform="translate(0 -0.149)" fill="#fff"/>
</svg>
